<?xml version="1.0" encoding="UTF-8"?>
<svg width="25px" height="47px" viewBox="0 0 25 47" version="1.1" xmlns="http://www.w3.org/2000/svg" xmlns:xlink="http://www.w3.org/1999/xlink">
    <!-- Generator: Sketch 51.2 (57519) - http://www.bohemiancoding.com/sketch -->
    <title>Shape</title>
    <desc>Created with Sketch.</desc>
    <defs></defs>
    <g id="Page-1" stroke="none" stroke-width="1" fill="none" fill-rule="evenodd">
        <path d="M24.2620578,5.62424371 C24.2614863,5.62424371 24.2609149,5.62424371 24.2603435,5.62424371 C23.323772,2.90506871 20.7534863,0.933968707 17.7414863,0.933968707 L7.55062918,0.933968707 C4.53862918,0.933968707 1.96834347,2.90506871 1.03177204,5.62481871 C1.03120061,5.62481871 1.03062918,5.62481871 1.03005775,5.62481871 C0.784914894,6.33379371 0.646057751,7.09106871 0.646057751,7.88054371 L0.646057751,39.9873937 C0.646057751,43.8071187 3.75348632,46.9316687 7.55062918,46.9339687 L17.7414863,46.9339687 C21.5386292,46.9316687 24.6460578,43.8071187 24.6460578,39.9873937 L24.6460578,7.88054371 C24.6460578,7.09106871 24.5072006,6.33379371 24.2620578,5.62424371 Z M18.6460578,1.9346096 C17.9967134,2.53960853 16.9917896,2.93396871 15.8597051,2.93396871 L10.4324104,2.93396871 C9.29973717,2.93396871 8.29481344,2.53960853 7.64605775,1.9346096 C7.68785599,1.93375508 18.6036708,1.93375508 18.6460578,1.9346096 Z M20.7330185,11.4216722 C21.4873698,11.7873026 21.6460578,12.2861019 21.6460578,12.6406349 C21.6460578,12.7031308 21.6419739,12.7691312 21.6320559,12.8351316 C21.4004414,14.3607332 20.8462004,17.8476559 20.6140025,19.2622834 C20.5527443,19.6489405 20.2190328,19.9316324 19.8275636,19.9339687 L5.4645519,19.9339687 C5.07308268,19.9322165 4.73995462,19.6489405 4.67811298,19.2622834 C4.44591514,17.8470718 3.89167406,14.3601492 3.66005963,12.8351316 C3.64955822,12.7685471 3.64605775,12.7031308 3.64605775,12.6406349 C3.64605775,12.2861019 3.80474572,11.7873026 4.559097,11.4216722 C5.22651994,11.0986792 6.22415388,10.9339702 7.53099601,10.9339702 L17.7611195,10.9339702 C19.0679616,10.9333862 20.066179,11.0986792 20.7330185,11.4216722 Z M5.64605775,1.93396871 C5.60494084,2.76934202 5.14099485,3.75710212 4.3149746,4.58757948 C3.48159012,5.42478878 2.48680645,5.89174104 1.64605775,5.93396871 C2.3315441,4.08941546 3.80009273,2.62429918 5.64605775,1.93396871 Z M4.64605775,40.5153161 C4.64605775,40.8291661 4.53413561,40.967612 4.38754194,41.0925654 C4.213576,41.2468505 3.74338135,41.6557354 3.28839352,41.8991892 C3.0499507,42.0241425 2.64605775,41.8153003 2.64605775,41.2257316 C2.64605775,36.1190699 2.64605775,17.4728616 2.64605775,17.1595982 C2.64605775,16.9020652 3.02926943,16.8410552 3.10165386,17.1026946 C3.43681201,18.3311092 4.16308938,21.657919 4.38693366,22.5190998 C4.52136189,23.0271262 4.64544948,23.7093832 4.64544948,24.2573007 C4.64605775,28.0633916 4.64605775,40.2413573 4.64605775,40.5153161 Z M17.2250069,44.9339687 L7.0674756,44.9339687 C4.21537776,44.9339687 3.37994934,43.5550152 3.71606091,42.7002696 C3.84788056,42.367568 3.94717328,42.1338654 4.35119194,41.5084945 C4.53950572,41.2158253 4.74151506,40.9323527 5.45767808,40.9339756 L18.8342338,40.9339756 C19.5509675,40.9323527 19.7524062,41.2158253 19.94072,41.5084945 C20.3447386,42.1338654 20.4440313,42.367568 20.575851,42.7002696 C20.9125332,43.5550152 20.0771048,44.9339687 17.2250069,44.9339687 Z M23.6460578,41.2256674 C23.6460578,41.8158353 23.2421648,42.0240954 23.003722,41.8991394 C22.5487342,41.6556804 22.0785395,41.2467867 21.9045736,41.0924983 C21.7579799,40.9675422 21.6460578,40.8290933 21.6460578,40.5152365 C21.6460578,40.2412719 21.6460578,28.0624577 21.6460578,24.2574582 C21.6460578,23.7095289 21.7701453,23.0266705 21.9045736,22.51922 C22.1284178,21.6580206 22.8546952,18.3311393 23.1898534,17.1026982 C23.2622378,16.8410532 23.6454495,16.9020646 23.6454495,17.1596031 C23.6460578,17.4722865 23.6460578,36.1188958 23.6460578,41.2256674 Z M20.9771409,4.58757948 C20.1511207,3.75649013 19.6871747,2.76934202 19.6460578,1.93396871 C21.4920228,2.62368719 22.9599577,4.08941546 23.6460578,5.93396871 C22.8059227,5.89174104 21.8111391,5.42417679 20.9771409,4.58757948 Z" id="Shape" fill="#0062FF" fill-rule="nonzero"></path>
    </g>
</svg>