<?xml version="1.0" standalone="no"?>
<!DOCTYPE svg PUBLIC "-//W3C//DTD SVG 1.1//EN" "http://www.w3.org/Graphics/SVG/1.1/DTD/svg11.dtd">
<svg xmlns="http://www.w3.org/2000/svg">
<metadata>Copyright (C) 2017 by original authors @ fontello.com</metadata>
<defs>
<font id="fontello" horiz-adv-x="1000" >
<font-face font-family="fontello" font-weight="400" font-stretch="normal" units-per-em="1000" ascent="850" descent="-150" />
<missing-glyph horiz-adv-x="1000" />
<glyph glyph-name="_add" unicode="&#xe800;" d="M790 392h-248v248h-84v-248h-248v-84h248v-248h84v248h248v84z" horiz-adv-x="1000" />

<glyph glyph-name="_arrow-right" unicode="&#xe801;" d="M294 717l354-366-354-368c-17-17-17-33 0-47 17-18 33-18 47 0l388 389c16 18 16 34 0 50l-387 389c-15 18-31 18-48 0-17-14-17-30 0-47z" horiz-adv-x="1000" />

<glyph glyph-name="_attention" unicode="&#xe802;" d="M439 170h122v-120h-122v120z m0 480h122v-361h-122v361z" horiz-adv-x="1000" />

<glyph glyph-name="_attention-outline" unicode="&#xe803;" d="M460 150h80v80h-80v-80z m0 160h80v240h-80v-240z m440 40c0-221-179-400-400-400s-400 179-400 400 179 400 400 400 400-179 400-400z m-81 0c0 176-143 319-319 319s-319-143-319-319 143-319 319-319 319 143 319 319z" horiz-adv-x="1000" />

<glyph glyph-name="_block" unicode="&#xe804;" d="M878 351c0-208-170-377-378-377s-378 169-378 377 170 378 378 378 378-169 378-378z m-616-185l423 423c-51 40-115 64-185 64-167 0-302-135-302-302 0-69 24-134 64-185z m539 185c0 70-23 134-63 185l-423-423c51-40 115-63 185-63 167 0 301 135 301 301z" horiz-adv-x="1000" />

<glyph glyph-name="_check" unicode="&#xe805;" d="M824 641l60-61-510-510-238 238 60 60 178-177 450 450z" horiz-adv-x="1000" />

<glyph glyph-name="_clock" unicode="&#xe806;" d="M235 607c-73-73-109-161-109-264s36-190 109-263 161-110 264-110 190 37 263 110 110 161 110 263-37 191-110 264-160 110-263 110-191-37-264-110z m58-470c-58 58-86 126-86 206 0 82 28 150 86 207s126 85 206 85c81 0 150-28 206-85s86-126 86-207c0-80-29-148-86-206s-125-86-206-86c-80 0-149 29-206 86z m178 417v-222l138-138 41 41-122 121v198h-57z" horiz-adv-x="1000" />

<glyph glyph-name="_date" unicode="&#xe807;" d="M400 316h-66v68h66v-68z m134 0h-68v68h68v-68z m132 0h-66v68h66v-68z m134 234v-466c0-37-30-68-66-68h-468c-36 0-66 31-66 68v466c0 37 30 66 66 66h34v68h66v-68h268v68h66v-68h34c36 0 66-29 66-66z m-66-100h-468v-366h468v366z" horiz-adv-x="1000" />

<glyph glyph-name="_delete" unicode="&#xe808;" d="M792 117l-59-59-233 233-233-233-59 59 233 233-233 233 59 59 233-233 233 233 59-59-233-233 233-233z" horiz-adv-x="1000" />

<glyph glyph-name="_double-down" unicode="&#xe809;" d="M774 372l-28 28c-3 3-7 5-12 5s-10-2-13-5l-220-220-219 220c-4 3-9 5-13 5s-9-2-12-5l-28-28c-4-4-6-8-6-13 0-5 2-9 6-13l260-260c2-4 6-6 12-6s9 2 13 6l260 260c4 4 6 8 6 13 0 5-2 9-6 13z m0 214l-28 28c-3 4-7 6-12 6s-10-2-13-6l-220-219-219 219c-4 4-9 6-13 6s-9-2-12-6l-28-28c-4-4-6-8-6-13s2-9 6-13l260-260c2-3 6-5 12-5s9 2 13 5l260 260c4 4 6 8 6 13s-2 9-6 13z" horiz-adv-x="1000" />

<glyph glyph-name="_download" unicode="&#xe80a;" d="M849 18v93h-688v-93h688z m-344 139l284 264h-156v285h-255v-285h-156l283-264z" horiz-adv-x="1000" />

<glyph glyph-name="_forward" unicode="&#xe80b;" d="M200 384h472l-119 119 47 47 200-200-200-200-47 47 119 119h-472v68z" horiz-adv-x="1000" />

<glyph glyph-name="_info" unicode="&#xe80c;" d="M529 462l-110-19-5-28h50l-43-260c-4-29-1-49 9-60 11-11 26-16 46-16 25 0 46 7 62 21s32 34 48 61l-23 16c-12-16-23-28-33-37-9-9-20-13-30-13s-16 3-19 11c-2 7-1 23 3 47l45 277z m-43 86c8-9 19-13 31-13s22 4 31 13c8 8 12 19 12 31s-4 22-12 31c-9 8-19 12-31 12s-23-4-31-12c-9-9-13-19-13-31 0-13 4-23 13-31z" horiz-adv-x="1000" />

<glyph glyph-name="_lock-open" unicode="&#xe80d;" d="M365 353v144c-1 32 10 59 33 82 22 22 49 34 81 34s59-12 82-34c22-23 33-50 33-82 0-7 3-14 9-20 6-6 13-9 20-9h29c8 0 15 3 21 9 5 6 8 13 8 20 1 57-19 104-59 143s-88 58-143 59c-55 0-102-19-141-59s-60-87-60-143v-144h-14c-11 1-22-3-30-12-9-8-13-19-13-30v-260c1-11 5-21 13-29 8-9 18-13 30-13h431c12 0 22 5 31 13 8 8 13 18 13 29v260c-1 12-5 22-13 30-8 8-18 12-31 12h-330z" horiz-adv-x="1000" />

<glyph glyph-name="_menu" unicode="&#xe80e;" d="M153 565h700v-78h-700v78z m0-195h700v-78h-700v78z m0-272v77h700v-77h-700z" horiz-adv-x="1000" />

<glyph glyph-name="_more-horizontal" unicode="&#xe80f;" d="M650 350c0 41 34 75 75 75 42 0 75-34 75-75s-33-75-75-75c-41 0-75 34-75 75z m-75 0c0-41-34-75-75-75s-75 34-75 75c0 41 34 75 75 75s75-34 75-75z m-225 0c0-41-34-75-75-75s-75 34-75 75c0 41 33 75 75 75s75-34 75-75z" horiz-adv-x="1000" />

<glyph glyph-name="_more-vertical" unicode="&#xe810;" d="M500 200c41 0 75-34 75-75 0-42-34-75-75-75s-75 33-75 75c0 41 34 75 75 75z m0 75c-41 0-75 34-75 75 0 41 34 75 75 75s75-34 75-75c0-41-34-75-75-75z m0 225c-41 0-75 34-75 75s34 75 75 75 75-33 75-75-34-75-75-75z" horiz-adv-x="1000" />

<glyph glyph-name="_pencil" unicode="&#xe811;" d="M565 540l125-125-369-369h-125v125l369 369z m161-90l-126 126 62 60c12 13 33 13 46 0l78-78c13-13 13-34 0-46l-60-62z" horiz-adv-x="1000" />

<glyph glyph-name="_person" unicode="&#xe812;" d="M500 348c96 0 174 78 174 174s-78 175-174 175-175-78-175-175 79-174 175-174z m0-87c-117 0-349-59-349-175v-87h698v87c0 116-233 175-349 175z" horiz-adv-x="1000" />

<glyph glyph-name="_refresh" unicode="&#xe813;" d="M833 683v-291h-291l134 134c-45 45-107 74-176 74-138 0-250-112-250-250s112-250 250-250c109 0 201 70 235 167h87c-37-144-167-250-322-250-184 0-333 149-333 333s149 333 333 333c92 0 175-37 235-98l98 98z" horiz-adv-x="1000" />

<glyph glyph-name="_remove" unicode="&#xe814;" d="M792 392h-584v-84h584v84z" horiz-adv-x="1000" />

<glyph glyph-name="_search" unicode="&#xe815;" d="M851 61l-60-60-200 200v31l-11 12c-45-39-104-63-169-63-144 0-260 116-260 260s117 260 260 260 260-116 260-260c0-65-24-124-63-169l12-11h31l200-200z m-260 380c0 100-80 180-180 180s-180-80-180-180 80-180 180-180 180 80 180 180z" horiz-adv-x="1000" />

<glyph glyph-name="_settings" unicode="&#xe816;" d="M806 390c1-13 3-26 3-40 0-14-2-28-3-40l87-68c7-6 10-17 5-26l-83-142c-5-10-16-13-25-10l-102 41c-22-16-45-29-69-40l-16-109c-1-9-10-17-21-17h-164c-10 0-18 7-20 17l-16 109c-25 11-48 25-69 40l-103-41c-9-3-20 0-25 10l-82 142c-6 9-3 20 5 25l86 68c-1 13-2 27-2 41 0 14 1 26 2 40l-86 68c-7 6-9 17-5 26l82 142c5 10 16 13 25 10l103-42c21 17 44 30 69 41l15 108c2 10 10 18 21 18h164c11 0 20-8 21-18l16-108c24-11 47-25 69-41l102 42c9 3 20 0 25-10l83-142c5-9 2-20-5-26l-87-68z m-306 104c-79 0-144-65-144-144s65-144 144-144 144 65 144 144-65 144-144 144z" horiz-adv-x="1000" />
</font>
</defs>
</svg>
