<?xml version="1.0" encoding="utf-8"?>
<svg version="1.1" id="add" xmlns="http://www.w3.org/2000/svg" xmlns:xlink="http://www.w3.org/1999/xlink" x="0px" y="0px"
	 viewBox="0 0 500 500" style="enable-background:new 0 0 500 500;" xml:space="preserve">
<path fill="#fff" d="M250,442.9c-106.8,0-193.4-86.6-193.4-193.4c0-99.7,75.4-181.8,172.4-192.2V20.2
	C111.7,30.8,19.8,129.4,19.8,249.5c0,127.2,103.1,230.3,230.3,230.3c71.9,0,136.1-33,178.3-84.6l-31.5-19.9
	C361.4,416.7,308.7,442.9,250,442.9z"/>
<path fill="#1391fd" d="M443.4,249.5c0,32.2-7.9,62.6-21.8,89.3l31.3,19.7c17.5-32.5,27.4-69.6,27.4-109.1
	c0-119.4-91-217.6-207.4-229.1v37.1C368.9,68.8,443.4,150.5,443.4,249.5z"/>
</svg>
